<svg width="31" height="37" viewBox="0 0 31 37" fill="none" xmlns="http://www.w3.org/2000/svg">
<path fill-rule="evenodd" clip-rule="evenodd" d="M15.4922 19.5C20.7389 19.5 24.9922 15.2467 24.9922 10C24.9922 4.75329 20.7389 0.5 15.4922 0.5C10.2455 0.5 5.99219 4.75329 5.99219 10C5.99219 15.2467 10.2455 19.5 15.4922 19.5ZM15.5001 14.5C17.9854 14.5 20.0001 12.4853 20.0001 10C20.0001 7.51472 17.9854 5.5 15.5001 5.5C13.0148 5.5 11.0001 7.51472 11.0001 10C11.0001 12.4853 13.0148 14.5 15.5001 14.5Z" fill="#B3B3B3"/>
<path fill-rule="evenodd" clip-rule="evenodd" d="M25.9883 36.5H30.9842C30.7202 28.171 23.8852 21.5 15.4921 21.5C7.09897 21.5 0.263952 28.171 0 36.5H5.01169C5.27267 30.9332 9.86862 26.5 15.5 26.5C21.1314 26.5 25.7273 30.9332 25.9883 36.5Z" fill="#B3B3B3"/>
</svg>
