<?xml version="1.0" encoding="UTF-8"?>
<svg id="_Слой_2" data-name="Слой 2" xmlns="http://www.w3.org/2000/svg" viewBox="0 0 43.22 38.1">
  <defs>
    <style>
      .cls-1 {
        fill: #1d1d1b;
        stroke-width: 0px;
      }
    </style>
  </defs>
  <g id="_Слой_1-2" data-name="Слой 1">
    <path class="cls-1" d="M42.89,34.35L23.78,1.25c-.45-.77-1.27-1.25-2.17-1.25s-1.72.48-2.17,1.25L.33,34.35c-.45.77-.45,1.73,0,2.5.45.77,1.27,1.25,2.17,1.25h38.22c.89,0,1.72-.48,2.17-1.25.45-.77.45-1.73,0-2.5ZM24.18,10.64l-.85,16h-3.39l-.82-16h5.06ZM23.58,34.04c-.51.51-1.16.77-1.93.77s-1.46-.26-1.98-.77c-.53-.51-.79-1.14-.79-1.9s.26-1.38.79-1.88c.52-.5,1.19-.75,1.98-.75s1.42.25,1.93.75c.51.5.77,1.13.77,1.88s-.26,1.39-.77,1.9Z"/>
  </g>
</svg>